<?xml version="1.0" encoding="utf-8"?>
<svg viewBox="0 0 1200 600" xmlns="http://www.w3.org/2000/svg" xmlns:bx="https://boxy-svg.com">
  <defs>
    <bx:grid x="0" y="0" width="50" height="50"/>
  </defs>
  <path style="paint-order: fill; fill: rgb(245, 233, 197);" d="M 150 50 C 300 50 334.29 87.334 450 85.274 C 484.653 84.657 565.532 75.153 600 71.527 C 650 66.268 722.193 100 773.086 100 C 825.574 100 861.499 90.001 911.499 75.41 C 961.499 60.819 1000 70.87 1050 77.535 C 1084.42 82.123 1115.276 100 1150 100 C 1167.365 100 1184.73 96.743 1200 92.491 L 1200 600 L 0 600 L 0 69.714 C 43.928 59.204 97.41 50 150 50 Z"/>
</svg>