<?xml version="1.0" encoding="utf-8"?>
<svg viewBox="0 0 1200 300" xmlns="http://www.w3.org/2000/svg" xmlns:bx="https://boxy-svg.com">
  <defs>
    <bx:grid x="0" y="0" width="50" height="50"/>
  </defs>
  <path style="paint-order: fill; fill: rgb(141, 179, 234);" d="M 0 100 C 0 100 52.913 104.216 72.156 100 C 118.054 89.945 153.506 56.783 200 50 C 257.979 41.542 341.921 69.981 400 77.721 C 468.118 86.798 531.29 101.157 600 100 C 653.552 99.099 696.444 64.793 750 65.38 C 815.27 66.095 884.727 99.7 950 100 C 1020.307 100.323 1055.1 67.093 1124.829 76.094 C 1152.507 79.667 1200 100 1200 100 L 1200 300 L 0.405 300 L 0 100 Z">
    <title>Sea</title>
  </path>
  <path style="paint-order: fill; fill: rgb(187, 223, 240);" d="M 0 99.555 C 0 99.555 52.913 103.771 72.156 99.555 C 118.054 89.5 153.506 56.338 200 49.555 C 257.979 41.097 341.921 69.536 400 77.276 C 468.118 86.353 531.29 100.712 600 99.555 C 653.552 98.654 696.444 64.348 750 64.935 C 815.27 65.65 884.727 99.255 950 99.555 C 1020.307 99.878 1055.1 66.648 1124.829 75.649 C 1152.507 79.222 1200 99.555 1200 99.555 L 1200 124.441 C 1172.867 113.51 1139.891 100.924 1121.628 98.888 C 1091.187 94.168 1069.946 99.897 1044.206 106.913 C 1018.453 113.932 988.831 122.59 949.885 123 C 879.226 121.452 809.689 87.846 749.726 88.379 C 727.21 87.385 707.442 95.087 683.411 103.674 C 659.38 112.261 631.273 121.79 600.421 122.996 C 528.73 123.844 463.696 109.378 396.698 100.502 C 336.259 92.211 255.773 63.75 203.609 72.738 C 163.85 76.281 129.268 109.284 77.506 122.421 C 60.344 125.86 28.712 125.33 0.051 124.507 Z"/>
</svg>